HIERARCHY
ROOT hip
{
  OFFSET 0 0 0
  CHANNELS 6 Xposition Yposition Zposition Zrotation Yrotation Xrotation
  JOINT abdomen
  {
    OFFSET 0 20.6881 -0.73152
    CHANNELS 3 Zrotation Xrotation Yrotation
    JOINT chest
    {
      OFFSET 0 11.7043 -0.48768
      CHANNELS 3 Zrotation Xrotation Yrotation
      JOINT neck
      {
        OFFSET 0 22.1894 -2.19456
        CHANNELS 3 Zrotation Xrotation Yrotation
        JOINT head
        {
          OFFSET -0.24384 7.07133 1.2192
          CHANNELS 3 Zrotation Xrotation Yrotation
          JOINT leftEye
          {
            OFFSET 4.14528 8.04674 8.04672
            CHANNELS 3 Zrotation Xrotation Yrotation
            End Site
            {
              OFFSET 1 0 0
            }
          }
          JOINT rightEye
          {
            OFFSET -3.6576 8.04674 8.04672
            CHANNELS 3 Zrotation Xrotation Yrotation
            End Site
            {
              OFFSET 1 0 0
            }
          }
        }
      }
      JOINT rCollar
      {
        OFFSET -2.68224 19.2634 -4.8768
        CHANNELS 3 Zrotation Xrotation Yrotation
        JOINT rShldr
        {
          OFFSET -8.77824 -1.95073 1.46304
          CHANNELS 3 Zrotation Xrotation Yrotation
          JOINT rForeArm
          {
            OFFSET -28.1742 -1.7115 0.48768
            CHANNELS 3 Zrotation Xrotation Yrotation
            JOINT rHand
            {
              OFFSET -22.5879 0.773209 7.07136
              CHANNELS 3 Zrotation Xrotation Yrotation
              JOINT rThumb1
              {
                OFFSET -1.2192 -0.487915 3.41376
                CHANNELS 3 Zrotation Xrotation Yrotation
                JOINT rThumb2
                {
                  OFFSET -3.37035 -0.52449 3.41376
                  CHANNELS 3 Zrotation Xrotation Yrotation
                  End Site
                  {
                    OFFSET -1.78271 -1.18214 1.43049
                  }
                }
              }
              JOINT rIndex1
              {
                OFFSET -7.75947 0.938293 5.60832
                CHANNELS 3 Zrotation Xrotation Yrotation
                JOINT rIndex2
                {
                  OFFSET -2.54057 -0.884171 1.56538
                  CHANNELS 3 Zrotation Xrotation Yrotation
                  End Site
                  {
                    OFFSET -1.62519 -0.234802 1.16502
                  }
                }
              }
              JOINT rMid1
              {
                OFFSET -8.24714 1.18213 3.41376
                CHANNELS 3 Zrotation Xrotation Yrotation
                JOINT rMid2
                {
                  OFFSET -3.10165 -0.590103 1.0647
                  CHANNELS 3 Zrotation Xrotation Yrotation
                  End Site
                  {
                    OFFSET -2.48547 -0.328903 0.83742
                  }
                }
              }
              JOINT rRing1
              {
                OFFSET -8.82822 0.546677 1.51678
                CHANNELS 3 Zrotation Xrotation Yrotation
                JOINT rRing2
                {
                  OFFSET -2.60934 -0.819778 -0.0198488
                  CHANNELS 3 Zrotation Xrotation Yrotation
                  End Site
                  {
                    OFFSET -2.33842 -0.294052 0.168128
                  }
                }
              }
              JOINT rPinky1
              {
                OFFSET -8.27202 -0.0477905 -0.4584
                CHANNELS 3 Zrotation Xrotation Yrotation
                JOINT rPinky2
                {
                  OFFSET -1.82734 -0.647385 -0.700984
                  CHANNELS 3 Zrotation Xrotation Yrotation
                  End Site
                  {
                    OFFSET -1.69225 -0.51767 -0.607171
                  }
                }
              }
            }
          }
        }
      }
      JOINT lCollar
      {
        OFFSET 2.68224 19.2634 -4.8768
        CHANNELS 3 Zrotation Xrotation Yrotation
        JOINT lShldr
        {
          OFFSET 8.77824 -1.95073 1.46304
          CHANNELS 3 Zrotation Xrotation Yrotation
          JOINT lForeArm
          {
            OFFSET 28.1742 -1.7115 0.48768
            CHANNELS 3 Zrotation Xrotation Yrotation
            JOINT lHand
            {
              OFFSET 22.5879 0.773209 7.07136
              CHANNELS 3 Zrotation Xrotation Yrotation
              JOINT lThumb1
              {
                OFFSET 1.2192 -0.487915 3.41376
                CHANNELS 3 Zrotation Xrotation Yrotation
                JOINT lThumb2
                {
                  OFFSET 3.37035 -0.52449 3.41376
                  CHANNELS 3 Zrotation Xrotation Yrotation
                  End Site
                  {
                    OFFSET 1.78271 -1.18214 1.43049
                  }
                }
              }
              JOINT lIndex1
              {
                OFFSET 7.75947 0.938293 5.60832
                CHANNELS 3 Zrotation Xrotation Yrotation
                JOINT lIndex2
                {
                  OFFSET 2.54057 -0.884171 1.56538
                  CHANNELS 3 Zrotation Xrotation Yrotation
                  End Site
                  {
                    OFFSET 1.62519 -0.234802 1.16502
                  }
                }
              }
              JOINT lMid1
              {
                OFFSET 8.24714 1.18213 3.41376
                CHANNELS 3 Zrotation Xrotation Yrotation
                JOINT lMid2
                {
                  OFFSET 3.10165 -0.590103 1.0647
                  CHANNELS 3 Zrotation Xrotation Yrotation
                  End Site
                  {
                    OFFSET 2.48547 -0.328903 0.83742
                  }
                }
              }
              JOINT lRing1
              {
                OFFSET 8.82822 0.546677 1.51678
                CHANNELS 3 Zrotation Xrotation Yrotation
                JOINT lRing2
                {
                  OFFSET 2.60934 -0.819778 -0.0198488
                  CHANNELS 3 Zrotation Xrotation Yrotation
                  End Site
                  {
                    OFFSET 2.33842 -0.294052 0.168128
                  }
                }
              }
              JOINT lPinky1
              {
                OFFSET 8.27202 -0.0477905 -0.4584
                CHANNELS 3 Zrotation Xrotation Yrotation
                JOINT lPinky2
                {
                  OFFSET 1.82734 -0.647385 -0.700984
                  CHANNELS 3 Zrotation Xrotation Yrotation
                  End Site
                  {
                    OFFSET 1.69225 -0.51767 -0.607171
                  }
                }
              }
            }
          }
        }
      }
    }
  }
  JOINT rButtock
  {
    OFFSET -8.77824 4.35084 1.2192
    CHANNELS 3 Zrotation Xrotation Yrotation
    JOINT rThigh
    {
      OFFSET 0 -1.70687 -2.19456
      CHANNELS 3 Zrotation Xrotation Yrotation
      JOINT rShin
      {
        OFFSET 0 -36.8199 0.73152
        CHANNELS 3 Zrotation Xrotation Yrotation
        JOINT rFoot
        {
          OFFSET 0.73152 -45.1104 -5.12064
          CHANNELS 3 Zrotation Xrotation Yrotation
          End Site
          {
            OFFSET -1.1221 -3.69964 12.103
          }
        }
      }
    }
  }
  JOINT lButtock
  {
    OFFSET 8.77824 4.35084 1.2192
    CHANNELS 3 Zrotation Xrotation Yrotation
    JOINT lThigh
    {
      OFFSET 0 -1.70687 -2.19456
      CHANNELS 3 Zrotation Xrotation Yrotation
      JOINT lShin
      {
        OFFSET 0 -36.8199 0.73152
        CHANNELS 3 Zrotation Xrotation Yrotation
        JOINT lFoot
        {
          OFFSET -0.73152 -45.1104 -5.12064
          CHANNELS 3 Zrotation Xrotation Yrotation
          End Site
          {
            OFFSET 1.1221 -3.69964 12.103
          }
        }
      }
    }
  }
}
MOTION
Frames:	4
Frame Time:	0.00833333
56.9766 74.8154 -118.895 -194.013 -126.592 -157.345 8.66102 -1.21416 7.8066 -2.54807 -9.3157 1.89305 -2.67463 11.4556 0.619345 3.58862 3.86875 0.51352 -0.0 0.0 0.0 -0.0 0.0 0.0 -7.63071e-14 -4.54559e-13 -1.29402e-12 -20.1038 -20.9328 26.8774 -20.6285 -13.8229 40.2295 -3.22511 -44.3689 -7.90094 -1.86705e-09 2.70939e-09 3.25545e-09 -3.31459e-09 4.675e-09 5.55286e-09 -1.86704e-09 2.70939e-09 3.25544e-09 7.73091 5.47488 0.417314 -1.86705e-09 2.70939e-09 3.25545e-09 2.90554 0.965183 0.102902 -1.86704e-09 2.70939e-09 3.25545e-09 10.2786 0.731801 0.0259123 -1.86706e-09 2.70939e-09 3.25546e-09 2.22167 -0.733487 -0.20892 -7.629e-14 -4.54557e-13 -1.29427e-12 15.9918 -28.1219 -6.95772 19.6693 -12.6019 -37.882 0.699092 23.0551 -3.42901 -4.07059e-09 6.42143e-09 -5.057e-09 -7.11367e-09 1.09656e-08 -8.65799e-09 -4.0706e-09 6.42143e-09 -5.05699e-09 -7.73091 5.47488 -0.417314 -4.07059e-09 6.42143e-09 -5.057e-09 -2.90554 0.965183 -0.102902 -4.0706e-09 6.42143e-09 -5.05699e-09 -10.2786 0.731801 -0.0259123 -4.07059e-09 6.42144e-09 -5.057e-09 -2.22167 -0.733487 0.20892 -2.03217e-16 0.0 -3.88251e-19 -4.10028 -31.3559 -27.0908 -1.79177 68.4735 2.28722 -0.64215 7.98411 -15.152 2.03217e-16 0.0 3.88251e-19 10.1403 -51.4413 33.2557 0.829308 56.1724 -1.36339 2.19354 -5.33485 11.2569
56.2024 74.7245 -118.748 -193.791 -127.267 -157.533 8.03604 -1.3063 7.44548 -2.66808 -9.49139 1.77514 -2.6121 11.6091 0.726965 3.56185 3.76611 0.715607 -0.0 0.0 0.0 -0.0 0.0 0.0 3.10084e-14 -1.34264e-13 -1.04991e-12 -20.5997 -22.1296 26.735 -20.5946 -13.7782 40.1438 -3.07906 -43.5972 -7.69006 -1.49828e-09 2.49887e-09 3.08564e-09 -2.67329e-09 4.3218e-09 5.27591e-09 -1.49828e-09 2.49887e-09 3.08564e-09 7.73091 5.47488 0.417314 -1.49828e-09 2.49886e-09 3.08565e-09 2.90554 0.965183 0.102902 -1.49828e-09 2.49886e-09 3.08565e-09 10.2786 0.731801 0.0259123 -1.49829e-09 2.49886e-09 3.08565e-09 2.22167 -0.733487 -0.20892 3.10524e-14 -1.3426e-13 -1.05006e-12 15.8659 -28.3361 -7.4427 19.7957 -12.7571 -38.1863 0.653646 22.3408 -3.31091 -3.6781e-09 5.6786e-09 -4.34806e-09 -6.42285e-09 9.70588e-09 -7.44628e-09 -3.6781e-09 5.6786e-09 -4.34806e-09 -7.73091 5.47488 -0.417314 -3.6781e-09 5.6786e-09 -4.34807e-09 -2.90554 0.965183 -0.102902 -3.67811e-09 5.6786e-09 -4.34806e-09 -10.2786 0.731801 -0.0259123 -3.6781e-09 5.6786e-09 -4.34806e-09 -2.22167 -0.733487 0.20892 -2.03217e-16 0.0 -3.88251e-19 -6.06091 -32.511 -27.7968 -2.23086 71.3994 2.74948 -1.0708 5.9386 -11.967 2.03217e-16 0.0 3.88251e-19 9.31915 -51.0028 32.5673 0.833392 56.0224 -1.30059 2.50975 -6.49596 11.4406
55.4287 74.7929 -118.466 -192.854 -127.822 -158.477 7.39607 -1.29765 7.03504 -2.73156 -9.69463 1.64853 -2.59537 11.7697 0.823413 3.53545 3.64376 0.900455 -0.0 0.0 0.0 -0.0 0.0 0.0 1.2738e-13 1.56938e-13 -7.12444e-13 -21.2153 -23.2783 26.4615 -20.572 -13.7484 40.0869 -2.94421 -42.8567 -7.49276 -7.90861e-10 1.84235e-09 2.45894e-09 -1.436e-09 3.1982e-09 4.21988e-09 -7.90854e-10 1.84234e-09 2.45894e-09 7.73091 5.47488 0.417314 -7.90859e-10 1.84234e-09 2.45895e-09 2.90554 0.965183 0.102902 -7.90855e-10 1.84234e-09 2.45895e-09 10.2786 0.731801 0.0259123 -7.90867e-10 1.84234e-09 2.45895e-09 2.22167 -0.733487 -0.20892 1.27421e-13 1.56943e-13 -7.12544e-13 15.5945 -28.6099 -8.03971 19.9229 -12.9152 -38.4932 0.614418 21.6961 -3.20547 -2.83183e-09 4.35995e-09 -3.08601e-09 -4.94042e-09 7.45836e-09 -5.28419e-09 -2.83183e-09 4.35995e-09 -3.08601e-09 -7.73091 5.47488 -0.417314 -2.83182e-09 4.35994e-09 -3.08602e-09 -2.90554 0.965183 -0.102902 -2.83183e-09 4.35995e-09 -3.08601e-09 -10.2786 0.731801 -0.0259123 -2.83183e-09 4.35995e-09 -3.08601e-09 -2.22167 -0.733487 0.20892 -2.03217e-16 0.0 -3.88251e-19 -8.10373 -33.6278 -28.6983 -2.76583 73.974 3.28392 -1.06858 5.25836 -9.40089 2.03217e-16 0.0 3.88251e-19 8.44365 -50.5385 31.8392 0.840419 55.9468 -1.24738 2.79184 -7.55274 11.5593
54.8049 74.5845 -118.186 -191.751 -128.444 -159.475 6.69592 -1.16312 6.55675 -2.7173 -9.93835 1.50947 -2.65046 11.9551 0.906141 3.52387 3.47368 1.0652 -0.0 0.0 0.0 -0.0 0.0 0.0 2.28314e-13 4.67458e-13 -1.58545e-13 -22.032 -24.3459 26.0043 -20.5688 -13.7442 40.0791 -2.81369 -42.1198 -7.30018 6.90154e-10 2.64992e-10 9.19067e-10 1.15935e-09 4.86883e-10 1.61069e-09 6.90159e-10 2.64989e-10 9.19064e-10 7.73091 5.47488 0.417314 6.90155e-10 2.64986e-10 9.1907e-10 2.90554 0.965183 0.102902 6.9016e-10 2.64987e-10 9.19071e-10 10.2786 0.731801 0.0259123 6.90148e-10 2.64988e-10 9.19072e-10 2.22167 -0.733487 -0.20892 2.28304e-13 4.67462e-13 -1.58655e-13 15.0985 -28.9925 -8.81573 20.0451 -13.0684 -38.7903 0.585832 21.2049 -3.12587 -1.08336e-09 1.85738e-09 -6.35282e-10 -1.88256e-09 3.18214e-09 -1.08013e-09 -1.08337e-09 1.85737e-09 -6.35275e-10 -7.73091 5.47488 -0.417314 -1.08336e-09 1.85737e-09 -6.35293e-10 -2.90554 0.965183 -0.102902 -1.08337e-09 1.85738e-09 -6.35283e-10 -10.2786 0.731801 -0.0259123 -1.08337e-09 1.85738e-09 -6.35287e-10 -2.22167 -0.733487 0.20892 -2.03217e-16 0.0 -3.88251e-19 -10.3333 -34.6956 -29.9284 -3.37702 76.1386 3.85918 -0.72734 6.85791 -7.417 2.03217e-16 0.0 3.88251e-19 7.45039 -50.0318 31.0783 0.850964 55.9571 -1.20155 3.02816 -8.5044 11.5859
